<?xml version="1.0" encoding="UTF-8" standalone="no"?><!DOCTYPE svg PUBLIC "-//W3C//DTD SVG 1.1//EN" "http://www.w3.org/Graphics/SVG/1.1/DTD/svg11.dtd"><svg width="100%" height="100%" viewBox="0 0 2399 2084" version="1.1" xmlns="http://www.w3.org/2000/svg" xmlns:xlink="http://www.w3.org/1999/xlink" xml:space="preserve" xmlns:serif="http://www.serif.com/" style="fill-rule:evenodd;clip-rule:evenodd;stroke-linejoin:round;stroke-miterlimit:2;"><path d="M576.822,77.712l1169.387,-19.736l168.994,47.162l55.509,136.634l0,82.647l-286.179,0l59.209,1195.291l-22.204,490.945l-598.262,-387.329l-638.969,317.017l-17.269,-1673.901l29.605,-43.174l80.179,-145.557Z" style="fill:#ebebeb;"/><path d="M871.339,26.692c-108.971,26.628 -172.982,123.06 -209.44,222.409c-44.466,121.172 -61.224,252.253 -66.341,380.638c-10.599,266.094 35.091,530.013 42.344,795.534c4.141,151.745 -11.628,298.685 -38.581,447.747c-4.909,27.148 31.602,35.247 40.872,10.143c43.542,-117.76 53.75,-247.461 55.807,-372.031c2.122,-128.646 -7.018,-257.109 -16.966,-385.286c-19.414,-250.065 -45.807,-506.237 12.24,-753.32c25.703,-109.44 69.857,-267.891 194.128,-300.195c29.805,-7.747 15.69,-52.904 -14.062,-45.638" style="fill:#e85824;fill-rule:nonzero;"/><path d="M1500.894,129.836c2.878,55.339 -5.326,112.682 -8.893,167.956c-3.633,56.068 -6.302,112.083 -8.32,168.229c-4.206,117.201 -6.172,234.492 -4.453,351.758c3.307,225.026 32.201,448.685 35.26,673.633c0.833,61.484 -0.534,123.021 -5.482,184.31c-5.169,64.232 -17.214,126.628 -27.617,190.065c-5.807,35.378 43.711,43.008 53.594,10.065c31.263,-104.297 37.253,-218.945 38.828,-327.214c1.628,-112.148 -5.56,-224.193 -13.581,-335.99c-8.008,-111.471 -16.432,-222.878 -19.401,-334.622c-3.125,-117.266 -1.107,-234.44 1.081,-351.693c1.211,-65.482 3.581,-130.938 3.802,-196.419c0.234,-64.844 -5.352,-133.073 2.422,-197.435c4.193,-34.635 -49.049,-37.292 -47.24,-2.643" style="fill:#e85824;fill-rule:nonzero;"/><path d="M1883.439,297.108c-51.003,1.953 -102.734,-1.771 -153.815,-4.297c0,-0.638 0,-1.276 0.013,-1.914c0.169,-11.315 0.247,-22.826 0.521,-34.375c15.56,-5.143 35.898,-3.971 51.38,-5.286c21.354,-1.81 42.76,-3.151 64.18,-4.089c29.544,-1.289 60.859,1.263 90.794,-1.172c-0.13,16.432 -0.117,32.891 1.432,48.815c-18.164,0.82 -36.328,1.615 -54.505,2.318m-143.112,-122.617c1.224,-1.042 2.357,-2.24 3.424,-3.529c27.513,-2.865 54.87,-4.427 82.604,-3.411c30,1.107 60.938,7.24 90.755,2.63c2.083,-0.326 3.958,-0.938 5.69,-1.732c0.924,1.862 1.849,3.737 2.695,5.664c0.599,2.682 1.628,5.299 3.073,7.721c2.982,8.19 5.208,16.758 6.536,25.651c-29.701,-3.112 -61.706,-0.117 -90.299,0.872c-19.479,0.664 -38.932,1.732 -58.372,3.138c-15.911,1.159 -36.25,5.625 -53.997,5.599c1.484,-14.466 3.932,-28.737 7.891,-42.604m153.945,-44.609c-20.859,-2.24 -42.396,-0.56 -63.034,0.977c-15.117,1.12 -30.208,2.63 -45.286,4.128c-4.141,0.417 -19.727,3.841 -31.589,5.443c33.997,-57.995 97.604,-50.417 139.909,-10.547m-194.388,1571.211c-0.794,14.427 -0.612,28.958 -0.977,43.411c-0.755,30.508 -2.161,60.977 -2.865,91.484c-0.651,28.737 -1.107,57.474 -1.849,86.198c-0.417,16.562 -1.953,33.216 -3.034,49.844c-38.451,-23.216 -74.922,-50.911 -111.484,-76.133c-49.284,-34.01 -98.945,-67.5 -148.581,-101.003c-48.451,-32.708 -97.096,-65.13 -145.339,-98.138c-23.516,-16.081 -47.109,-32.044 -70.807,-47.852c-24.531,-16.367 -49.987,-37.018 -78.62,-45.091c-6.172,-10.143 -17.552,-16.029 -31.341,-9.544c-52.318,24.622 -106.393,43.529 -159.596,66.042c-54.492,23.073 -108.138,47.799 -161.51,73.346c-52.396,25.065 -103.776,52.331 -154.987,79.727c-24.753,13.242 -49.427,26.641 -74.01,40.195c-10.716,5.898 -21.38,11.849 -32.057,17.812c11.38,-77.799 24.531,-155.078 29.219,-234.076c5.885,-99.18 -41.159,-597.786 -42.904,-697.083c-1.758,-99.609 -4.805,-199.206 -5.69,-298.841c-0.846,-94.714 -2.656,-191.146 6.979,-285.495c4.206,-41.068 11.146,-82.956 25.547,-121.823c15.742,-42.487 42.187,-94.323 87.526,-111.836c54.714,-21.133 139.44,-10.117 198.229,-12.214c228.633,-8.138 458.385,-8.906 686.966,-0.99c56.81,2.227 113.503,6.159 170.182,10c-41.471,58.333 -41.628,133.737 -41.536,202.865c0.104,86.94 0.807,173.88 2.096,260.807c2.526,171.302 56.315,741.432 60.677,912.656c1.51,59.779 2.031,120.495 -1.302,180.885l4.479,-0.039c-1.133,8.555 -2.995,17.279 -3.411,24.883m298.086,-1408.984c-0.807,-14.193 -3.385,-28.516 -5.547,-42.083c-0.339,-2.096 -0.729,-4.18 -1.133,-6.263c0.846,-3.255 1.354,-6.563 1.497,-9.909c0.456,-9.844 -1.654,-19.922 -3.763,-29.661c-10.299,-47.383 -26.771,-98.073 -61.536,-133.503c-43.438,-44.271 -104.089,-42.969 -161.654,-45.221c-79.909,-3.125 -159.622,-9.831 -239.44,-14.336c-103.763,-5.859 -207.656,-9.466 -311.576,-10.833c-141.042,-1.849 -262.565,5.143 -403.294,14.414c-112.656,7.422 -247.513,-5.378 -319.453,99.154c-25.404,36.901 -41.133,80.43 -50.768,123.932c-5.352,24.141 -9.297,48.633 -12.279,73.32c-3.399,28.142 -4.636,44.476 -6.172,70.716c-2.76,47.161 -3.346,94.531 -4.375,141.055c-4.792,216.823 52.604,848.711 44.948,1065.508c-3.958,112.148 -1.615,229.349 -23.932,339.87c-1.263,1.172 -2.5,2.409 -3.646,3.75c-12.773,14.896 -12.852,32.695 -4.297,49.427l2.161,4.258c6.302,12.331 24.362,21.185 37.904,19.557c29.596,-3.555 36.914,-25.013 62.773,-39.115c27.031,-14.753 54.167,-29.323 81.406,-43.698c11.224,-5.924 22.487,-11.771 33.75,-17.591c4.141,-0.326 8.932,-2.018 14.427,-5.599c14.74,-9.622 54.622,-1.211 72.005,-0.742c24.102,0.625 48.19,1.211 72.292,1.823c44.727,1.12 92.695,5.26 136.38,-5.924c15.964,-4.089 14.388,-27.669 -0.794,-31.523c-43.88,-11.159 -92.07,-6.484 -136.966,-5.404c-22.695,0.547 -45.391,1.211 -68.086,1.875c13.828,-7.005 27.669,-14.023 41.484,-21.081c16.458,-8.398 32.943,-16.758 49.414,-25.117c3.594,6.198 10.313,10.781 20.573,10.924c28.555,0.404 57.122,0.43 85.664,1.211c28.372,0.781 57.656,7.357 85.794,2.982c18.086,-2.813 23.216,-27.617 3.646,-33.333c-26.445,-7.734 -54.922,-5.573 -82.214,-7.943c-17.057,-1.484 -34.076,-3.464 -51.094,-5.534c16.003,-8.112 32.005,-16.224 47.995,-24.362c53.867,-27.422 106.471,-56.589 162.331,-79.596c18.594,18.542 45.273,31.081 67.474,44.44c26.628,16.016 53.125,32.214 79.544,48.568c51.536,31.901 101.94,65.391 152.279,99.154c48.906,32.799 97.513,66.055 146.536,98.685c52.018,34.648 108.633,66.94 155.534,108.49c14.271,12.643 35.612,6.211 41.029,-11.862c8.997,-30.078 11.315,-62.422 16.055,-93.424c2.656,-17.37 5.013,-34.74 7.083,-52.148c2.799,0.339 5.885,0.247 9.245,-0.378c56.615,-10.43 108.958,10.365 164.688,6.406c18.268,-1.302 28.112,-28.932 8.932,-37.422c-53.112,-23.503 -120.951,-13.021 -178.125,-15.482c2.305,-28.06 3.411,-56.055 3.88,-84.219c0.234,-13.841 0.716,-27.826 0.521,-41.719c5.612,3.021 13.424,3.099 23.542,-2.031c18.385,-9.31 56.406,-2.357 76.198,-2.292c23.125,0.091 46.146,1.706 68.789,-3.464c14.831,-3.385 13.503,-26.133 -0.69,-29.362c-22.695,-5.143 -45.911,-3.268 -69.089,-3.125c-20.99,0.117 -57.721,6.693 -76.693,-2.956c-9.232,-4.688 -16.562,-4.362 -21.953,-1.224c1.745,-28.646 2.891,-57.344 3.542,-86.081c6.315,2.109 13.594,1.745 20.143,-2.083c11.419,-6.68 44.883,2.109 57.148,3.294c19.323,1.862 38.633,3.958 57.943,5.977c38.919,4.076 80.703,13.125 119.544,6.875c15.911,-2.565 11.172,-24.062 -0.625,-28.268c-35.195,-12.578 -77.148,-10.807 -114.089,-13.711c-19.297,-1.51 -38.594,-2.943 -57.878,-4.583c-12.357,-1.042 -48.997,1.042 -58.568,-7.227c-6.758,-5.833 -15.43,-7.174 -22.969,-4.987c0.052,-7.227 0.143,-14.466 0.156,-21.706c3.138,-7.148 3.151,-15.443 -0.039,-22.37c-0.052,-11.224 -0.742,-27.526 -1.901,-47.643c3.073,-1.523 5.885,-3.724 8.19,-6.667c31.745,-5.273 63.672,3.06 94.922,-2.109c19.076,-3.151 12.656,-28.151 -0.872,-33.346c-30.091,-11.536 -68.268,-2.214 -100.039,1.693c-1.602,-0.938 -3.268,-1.628 -4.948,-2.174c-2.448,-34.935 -5.677,-76.237 -9.336,-120.938c4.18,-0.13 9.023,-1.497 14.57,-4.57c18.711,-10.339 64.31,-1.797 85.13,0.169c24.518,2.305 49.844,5.82 74.375,3.516c31.589,-2.969 28.516,-45.352 -1.732,-48.099c-26.445,-2.383 -53.346,2.24 -79.714,4.479c-21.953,1.862 -60.182,9.427 -79.544,-1.263c-6.745,-3.724 -12.474,-4.622 -17.161,-3.607c-2.656,-31.706 -5.43,-64.388 -8.216,-97.122c48.867,-6.953 116.068,13.932 159.141,-13.724c13.034,-8.372 9.74,-28.529 -5.143,-32.513c-22.747,-6.068 -47.383,1.797 -70.612,4.01c-27.513,2.63 -55.443,4.831 -81.914,-4.453c-1.953,-0.677 -3.789,-1.081 -5.547,-1.289c-3.099,-36.549 -6.133,-72.526 -8.919,-106.536c9.336,-5.521 39.544,-1.367 47.591,-1.224c16.549,0.299 31.992,3.698 48.242,0.078c17.161,-3.828 18.997,-30.143 3.737,-37.591c-16.745,-8.177 -35.065,-7.24 -53.438,-6.432c-8.464,0.378 -16.667,1.38 -25.013,2.812c-4.505,0.768 -16.641,5.286 -24.036,6.302c-3.398,-42.396 -6.276,-80.599 -8.255,-111.458c4.076,-0.169 8.724,-1.341 14.036,-3.919c12.617,-6.12 37.591,-0.794 51.458,-0.742c17.37,0.078 34.74,0.56 52.109,0.651c31.38,0.156 67.096,5.625 96.849,-5.521c13.555,-5.065 18.659,-26.406 3.438,-33.424c-29.622,-13.672 -64.31,-10.365 -96.302,-9.987c-17.331,0.208 -34.596,1.263 -51.875,2.5c-18.542,1.315 -45.247,9.049 -62.943,3.125c-3.411,-1.146 -6.523,-1.51 -9.323,-1.289c-0.156,-4.948 -0.273,-9.414 -0.299,-13.242c-0.352,-47.044 -0.534,-94.102 -0.612,-141.146c6.224,1.211 12.982,0.091 18.711,-3.672c11.159,-0.469 22.5,0.312 33.594,0.56c12.839,0.299 27.057,2.656 38.984,-2.682c12.396,-5.56 19.023,-25.742 3.385,-32.747c-22.526,-10.078 -50.586,-3.086 -75.547,-3.372c-5.781,-4.44 -12.721,-5.456 -19.115,-3.919c0,-24.596 -0.052,-49.206 0.026,-73.802c35.026,4.388 70.911,7.279 104.688,1.797c28.346,-4.596 28.815,-45.898 -1.576,-45.833c-35.677,0.091 -68.893,2.292 -102.956,-1.836c0.221,-45.052 0.521,-90.104 1.016,-135.143c52.148,0.729 104.635,-0.573 156.628,2.409c51.667,2.956 48.693,-0.009 100.464,1.02" style="fill:#282825;fill-rule:nonzero;"/><g id="Ebene1"></g></svg>