<?xml version="1.0" encoding="UTF-8" standalone="no"?><!DOCTYPE svg PUBLIC "-//W3C//DTD SVG 1.1//EN" "http://www.w3.org/Graphics/SVG/1.1/DTD/svg11.dtd"><svg width="100%" height="100%" viewBox="0 0 3334 3334" version="1.1" xmlns="http://www.w3.org/2000/svg" xmlns:xlink="http://www.w3.org/1999/xlink" xml:space="preserve" xmlns:serif="http://www.serif.com/" style="fill-rule:evenodd;clip-rule:evenodd;stroke-linejoin:round;stroke-miterlimit:2;"><g><g><path d="M2462.344,286.663l-2179.867,0c-13.079,0 -23.694,11.639 -23.694,26.038l0,2421.437c0,169.402 135.72,312.532 296.343,312.532l1659.305,0c152.306,0 271.607,-137.271 271.607,-312.532l0,-2421.437c0,-14.399 -10.615,-26.038 -23.694,-26.038Zm-23.694,2447.475c0,146.046 -98.497,260.456 -224.218,260.456l-1659.305,0c-132.616,0 -248.955,-121.701 -248.955,-260.456l0,-2395.4l2132.478,0l0,2395.4Z" style="fill-rule:nonzero;"/></g></g><g><g><path d="M2343.873,286.663c-13.079,0 -23.694,11.639 -23.694,26.038l0,2421.437c0,75.484 -44.474,130.267 -105.747,130.267l-1659.305,0c-68.287,0 -130.484,-62.1 -130.484,-130.267l0,-2421.437c0,-14.399 -10.615,-26.038 -23.694,-26.038c-13.079,0 -23.694,11.639 -23.694,26.038l0,2421.437c0,97.147 83.119,182.343 177.872,182.343l1659.305,0c88.735,0 153.136,-76.681 153.136,-182.343l0,-2421.437c0,-14.399 -10.615,-26.038 -23.694,-26.038Z" style="fill-rule:nonzero;"/></g></g><g><g><path d="M851.138,703.19c-52.269,0 -94.777,46.712 -94.777,104.151l0,52.154c0,14.399 10.615,26.038 23.694,26.038c13.079,0 23.694,-11.639 23.694,-26.038l0,-52.154c0,-28.225 21.704,-52.076 47.388,-52.076c25.685,0 47.388,23.851 47.388,52.076l0,1848.267c0,28.225 -21.704,52.076 -47.388,52.076c-25.685,0 -47.388,-23.851 -47.388,-52.076l0,-1587.811c0,-14.399 -10.615,-26.038 -23.694,-26.038c-13.079,0 -23.694,11.639 -23.694,26.038l0,1587.811c0,57.439 42.507,104.151 94.777,104.151c52.269,0 94.777,-46.686 94.777,-104.151l0,-1848.267c0,-57.439 -42.507,-104.151 -94.777,-104.151Z" style="fill-rule:nonzero;"/></g></g><g><g><path d="M1372.411,703.19c-52.269,0 -94.777,46.712 -94.777,104.151l0,52.154c0,14.399 10.615,26.038 23.694,26.038c13.079,0 23.694,-11.639 23.694,-26.038l0,-52.154c0,-28.225 21.704,-52.076 47.388,-52.076c25.685,0 47.388,23.851 47.388,52.076l0,1848.267c0,28.225 -21.704,52.076 -47.388,52.076c-25.685,0 -47.388,-23.851 -47.388,-52.076l0,-1587.811c0,-14.399 -10.615,-26.038 -23.694,-26.038c-13.079,0 -23.694,11.639 -23.694,26.038l0,1587.811c0,57.439 42.507,104.151 94.777,104.151c52.269,0 94.777,-46.686 94.777,-104.151l0,-1848.267c0,-57.439 -42.507,-104.151 -94.777,-104.151Z" style="fill-rule:nonzero;"/></g></g><g><g><path d="M1893.683,703.19c-52.269,0 -94.777,46.712 -94.777,104.151l0,52.154c0,14.399 10.615,26.038 23.694,26.038c13.079,0 23.694,-11.639 23.694,-26.038l0,-52.154c0,-28.225 21.704,-52.076 47.388,-52.076c25.685,0 47.388,23.851 47.388,52.076l0,1848.267c0,28.225 -21.704,52.076 -47.388,52.076c-25.685,0 -47.388,-23.851 -47.388,-52.076l0,-1587.811c0,-14.399 -10.615,-26.038 -23.694,-26.038c-13.079,0 -23.694,11.639 -23.694,26.038l0,1587.811c0,57.439 42.507,104.151 94.777,104.151c52.269,0 94.777,-46.686 94.777,-104.151l0,-1848.267c0,-57.439 -42.507,-104.151 -94.777,-104.151Z" style="fill-rule:nonzero;"/></g></g><g><g><path d="M2734.993,573.079l-272.649,0c-13.079,0 -23.694,11.639 -23.694,26.038c0,14.399 10.615,26.038 23.694,26.038l272.649,0c285.563,0 509.26,252.358 509.26,574.55l0,727.314c0,321.228 -223.697,572.858 -509.26,572.858l-272.649,0c-13.079,0 -23.694,11.639 -23.694,26.038c0,14.399 10.615,26.038 23.694,26.038l272.649,0c312.147,0 556.648,-274.517 556.648,-624.933l0,-727.314c0,-351.38 -244.501,-626.626 -556.648,-626.626Z" style="fill-rule:nonzero;"/></g></g><g><g><path d="M2734.993,833.457l-272.649,0c-13.079,0 -23.694,11.639 -23.694,26.038c0,14.399 10.615,26.038 23.694,26.038l272.649,0c152.709,0 272.317,138 272.317,314.172l0,727.314c0,175.234 -119.608,312.48 -272.317,312.48l-272.649,0c-13.079,0 -23.694,11.639 -23.694,26.038c0,14.399 10.615,26.038 23.694,26.038l272.649,0c179.27,0 319.706,-160.132 319.706,-364.555l0,-727.314c0,-205.36 -140.436,-366.248 -319.706,-366.248Z" style="fill-rule:nonzero;"/></g></g></svg>