<?xml version="1.0" encoding="UTF-8" standalone="no"?><!DOCTYPE svg PUBLIC "-//W3C//DTD SVG 1.1//EN" "http://www.w3.org/Graphics/SVG/1.1/DTD/svg11.dtd"><svg width="100%" height="100%" viewBox="0 0 8892 8892" version="1.1" xmlns="http://www.w3.org/2000/svg" xmlns:xlink="http://www.w3.org/1999/xlink" xml:space="preserve" xmlns:serif="http://www.serif.com/" style="fill-rule:evenodd;clip-rule:evenodd;stroke-linejoin:round;stroke-miterlimit:2;"><g><path d="M5312.12,1655.63c-212.354,-582.203 103.634,-775.501 739.753,-733.154c336.093,94.344 641.448,273.68 889.699,523.948l0.003,0.016c288.89,291.253 480.102,659.395 552.993,1064.62c91.069,506.55 -12.677,1023.38 -292.165,1455.25c-254.907,393.924 -633.737,683.547 -1076.06,825.741l206.832,1150.46c111.033,617.598 -301.101,1210.38 -918.684,1321.41l-2798.28,503.084c-617.598,111.033 -1210.38,-301.101 -1321.41,-918.684l-836.28,-4651.64l150.252,61.096l143.778,79.54l-143.778,-79.54l148.202,60.262l805.798,4482.09c84.463,469.81 535.42,783.295 1005.21,698.835l2798.3,-503.083l0.005,0.025c469.78,-84.458 783.286,-535.397 698.809,-1005.19l-775.38,-4312.9l22.404,-22.204l242.475,-43.592l523.015,2909.16c803.254,-277.536 1301.85,-1111.12 1148.88,-1961.97c-120.826,-672.071 -611.492,-1202.62 -1263.66,-1378.64l-5.014,4.988l92.629,-260.811l-92.629,260.811c-439.249,-15.287 -573.902,120.211 -407.095,404.942l3.869,21.521l-242.475,43.592Z" style="fill:#fff;"/><path d="M298.583,1307.04l5038.37,-905.808l229.698,1277.65l-276.545,49.718l-186.964,-1039.95l-4494.07,807.951l160.255,891.386l-267.76,48.138l-202.989,-1129.09Z" style="fill:#fff;"/><path d="M298.583,1307.04l5038.37,-905.808l229.698,1277.65l-276.545,49.718l-186.964,-1039.95l-4494.07,807.951l160.255,891.386l-267.76,48.138l-202.989,-1129.09Z" style="fill:#fff;"/><path d="M2234.67,6741.25c-220.019,39.556 -431.206,-107.268 -470.76,-327.282l-690.863,-3842.79l268.015,-48.185l690.86,3842.77c12.988,72.246 82.315,120.444 154.556,107.456c72.246,-12.988 120.444,-82.315 107.455,-154.561l-690.859,-3842.77l268.012,-48.183l690.859,3842.77c39.558,220.035 -107.281,431.225 -327.279,470.776l0.004,-0.001Z" style="fill:#fff;fill-rule:nonzero;"/><path d="M3294.74,6550.67c-220.014,39.554 -431.201,-107.269 -470.756,-327.283l-690.863,-3842.79l268.011,-48.183l690.86,3842.77c12.988,72.245 82.319,120.442 154.561,107.455c72.246,-12.989 120.443,-82.315 107.455,-154.561l-690.86,-3842.77l268.012,-48.184l690.859,3842.77c39.575,220.032 -107.265,431.222 -327.279,470.777Z" style="fill:#fff;fill-rule:nonzero;"/><path d="M4354.83,6360.08c-220.014,39.554 -431.201,-107.269 -470.756,-327.283l-690.863,-3842.79l268.016,-48.184l690.859,3842.77c12.988,72.246 82.315,120.443 154.557,107.456c72.246,-12.989 120.443,-82.315 107.455,-154.561l-690.86,-3842.77l268.012,-48.184l690.859,3842.77c39.559,220.035 -107.281,431.225 -327.279,470.777Z" style="fill:#fff;fill-rule:nonzero;"/><path d="M5414.88,6169.51c-220.015,39.554 -431.202,-107.269 -470.756,-327.283l-690.863,-3842.79l268.011,-48.183l690.86,3842.77c12.988,72.246 82.315,120.444 154.56,107.456c72.246,-12.989 120.46,-82.318 107.472,-154.564l-690.859,-3842.77l268.011,-48.184l690.859,3842.77c39.559,220.035 -107.248,431.219 -327.295,470.78Z" style="fill:#fff;fill-rule:nonzero;"/><path d="M5329.47,6455.42l48.184,268.011l-2915.14,524.089l-48.184,-268.011l2915.14,-524.089Z" style="fill:#fff;"/></g></svg>