<?xml version="1.0" encoding="UTF-8" standalone="no"?><!DOCTYPE svg PUBLIC "-//W3C//DTD SVG 1.1//EN" "http://www.w3.org/Graphics/SVG/1.1/DTD/svg11.dtd"><svg width="100%" height="100%" viewBox="0 0 2134 2134" version="1.1" xmlns="http://www.w3.org/2000/svg" xmlns:xlink="http://www.w3.org/1999/xlink" xml:space="preserve" xmlns:serif="http://www.serif.com/" style="fill-rule:evenodd;clip-rule:evenodd;stroke-linejoin:round;stroke-miterlimit:2;"><path d="M1454.41,775.858c-61.963,0 -117,-29.171 -152.488,-74.412c-23.575,6.171 -48.187,9.787 -73.696,9.787c-55.008,0 -106.258,-15.554 -150.121,-42.083c-31.933,63.242 -97.312,106.712 -173,106.712c-72.741,0 -136.037,-40.12 -169.204,-99.379c-53.304,60.796 -131.329,99.379 -218.537,99.379c-74.588,0 -142.396,-28.32 -193.875,-74.487l-0,1158.85c-0,132.787 107.65,240.437 240.437,240.437l682.359,0c132.787,0 240.437,-107.65 240.437,-240.437l0,-1087.27c-10.525,1.767 -21.275,2.904 -32.312,2.904Z" style="fill:#ffc000;fill-rule:nonzero;"/><path d="M517.363,194.242c30.891,-0 60.616,4.904 88.545,13.829c44.675,-103.167 147.309,-175.392 266.884,-175.392c97.779,0 184.079,48.417 236.8,122.413c36.258,-16.238 76.329,-25.471 118.633,-25.471c153.371,-0 278.713,118.812 289.725,269.367c75.817,26.333 130.333,98.216 130.333,183c0,107.075 -86.8,193.875 -193.875,193.875c-61.962,-0 -117,-29.171 -152.487,-74.413c-23.575,6.171 -48.188,9.788 -73.696,9.788c-55.008,-0 -106.258,-15.555 -150.121,-42.084c-31.933,63.242 -97.312,106.713 -173,106.713c-72.742,-0 -136.037,-40.121 -169.204,-99.379c-53.304,60.795 -131.329,99.379 -218.538,99.379c-160.608,-0 -290.808,-130.2 -290.808,-290.809c0,-160.62 130.2,-290.816 290.808,-290.816Z" style="fill:#fff;fill-rule:nonzero;"/><path d="M1854.05,824.021c-48.012,-69.659 -112.525,-124.988 -187.908,-161.546c9.546,-25.029 14.825,-52.15 14.825,-80.492c-0,-89.166 -52.488,-169.471 -132.592,-205.983c-21.85,-158.063 -158.654,-279.067 -320.15,-279.067c-36.983,0 -73.179,6.267 -107.925,18.659c-61.229,-72.805 -151.958,-115.592 -247.508,-115.592c-119.467,-0 -228.225,65.658 -284.421,169.471c-23.308,-5.254 -47.092,-7.909 -71.012,-7.909c-178.367,0 -323.488,145.117 -323.488,323.488c-0,90.221 37.167,171.887 96.937,230.621l0,1144.55c0,150.596 122.521,273.121 273.121,273.121l682.354,-0.001c150.596,0.001 273.121,-122.52 273.121,-273.12l0,-280.538c110.521,-14.804 212.305,-67.129 289.246,-149.354c84.359,-90.146 130.813,-207.821 130.813,-331.342c-0.009,-98.816 -29.542,-193.896 -85.413,-274.962Zm-1594.83,-338.971c0,-142.333 115.796,-258.133 258.134,-258.133c26.645,-0 53.095,4.129 78.604,12.283l28.175,8.996l11.75,-27.142c40.966,-94.587 133.958,-155.704 236.9,-155.704c83.125,-0 161.695,40.633 210.187,108.696l15.534,21.804l24.433,-10.946c33.508,-15.004 68.933,-22.617 105.275,-22.617c134.383,0 247.329,105.017 257.137,239.08l1.567,21.433l20.3,7.054c64.825,22.517 108.375,83.65 108.375,152.134c0,88.883 -72.313,161.195 -161.196,161.195c-49.704,0 -95.917,-22.566 -126.779,-61.904l-13.233,-16.871l-20.75,5.429c-22.125,5.792 -44.138,8.721 -65.43,8.721c-46.733,0 -92.795,-12.925 -133.204,-37.366l-30.187,-18.259l-15.9,31.488c-27.646,54.75 -82.759,88.762 -143.834,88.762c-58.245,0 -112.15,-31.675 -140.687,-82.662l-22.596,-40.363l-30.496,34.784c-49.166,56.079 -119.866,88.241 -193.971,88.241c-142.312,0 -258.108,-115.8 -258.108,-258.133Zm987.058,1582.93l-682.358,0c-114.558,0 -207.767,-93.2 -207.767,-207.762l0,-1094.88c47.496,27.425 102.521,43.204 161.192,43.204c79.15,0 155.171,-29.225 214.017,-81.283c42.625,50.929 106.087,81.283 173.729,81.283c74.596,0 142.846,-36.037 184.933,-95.9c43.217,20.534 90.4,31.275 138.188,31.275c20.312,0 41.033,-2.087 61.825,-6.216c42.646,45.179 101.308,70.733 163.996,70.833l-0,1051.69c0.004,114.558 -93.2,207.762 -207.755,207.762Zm273.117,-554.346l0,-714.641c46.133,-13.842 86.104,-42.013 114.754,-79.33c146.575,69.275 239.946,215.434 239.946,379.317c0,207.479 -153.175,383.208 -354.7,414.654Z" style="fill:#1d1d1b;fill-rule:nonzero;"/><g><path d="M452.738,840.483l-0,937.05c-0,35.692 28.933,64.625 64.625,64.625c35.691,0 64.624,-28.933 64.624,-64.625l0,-937.05" style="fill:#fbb049;fill-rule:nonzero;"/><path d="M711.238,840.483l-0,937.05c-0,35.692 28.933,64.625 64.625,64.625c35.691,0 64.624,-28.933 64.624,-64.625l0,-937.05" style="fill:#fbb049;fill-rule:nonzero;"/><path d="M969.733,840.483l0,937.05c0,35.692 28.934,64.625 64.625,64.625c35.692,0 64.625,-28.933 64.625,-64.625l0,-937.05" style="fill:#fbb049;fill-rule:nonzero;"/><path d="M1228.23,840.483l0,937.05c0,35.692 28.934,64.625 64.625,64.625c35.692,0 64.625,-28.933 64.625,-64.625l0,-937.05" style="fill:#fbb049;fill-rule:nonzero;"/></g><g><path d="M517.363,1874.84c-53.651,-0 -97.301,-43.65 -97.301,-97.3l0,-937.055l65.355,0l-0,937.05c-0,17.617 14.329,31.946 31.945,31.946c17.617,0 31.946,-14.329 31.946,-31.946l0,-937.05l65.354,0l0,937.05c0,53.655 -43.654,97.305 -97.3,97.305Z" style="fill:#1d1d1b;fill-rule:nonzero;"/><path d="M775.858,1874.84c-53.65,-0 -97.3,-43.65 -97.3,-97.3l0,-937.055l65.354,0l0,937.05c0,17.617 14.33,31.946 31.946,31.946c17.617,0 31.946,-14.329 31.946,-31.946l0,-937.05l65.354,0l0,937.05c0.004,53.655 -43.65,97.305 -97.3,97.305Z" style="fill:#1d1d1b;fill-rule:nonzero;"/><path d="M1034.36,1874.84c-53.65,-0 -97.3,-43.65 -97.3,-97.3l0,-937.055l65.355,0l-0,937.05c-0,17.617 14.329,31.946 31.945,31.946c17.617,0 31.946,-14.329 31.946,-31.946l0,-937.05l65.354,0l0,937.05c0,53.655 -43.654,97.305 -97.3,97.305Z" style="fill:#1d1d1b;fill-rule:nonzero;"/><path d="M1292.85,1874.84c-53.65,-0 -97.3,-43.65 -97.3,-97.3l0,-937.055l65.354,0l0,937.05c0,17.617 14.329,31.946 31.946,31.946c17.617,0 31.95,-14.329 31.95,-31.946l0,-937.05l65.354,0l0,937.05c0,53.655 -43.646,97.305 -97.304,97.305Z" style="fill:#1d1d1b;fill-rule:nonzero;"/><path d="M453.104,452.738l-65.354,-0c0,-71.467 58.146,-129.617 129.613,-129.617l-0,65.354c-35.434,0 -64.259,28.829 -64.259,64.263Z" style="fill:#1d1d1b;fill-rule:nonzero;"/></g><rect x="549.683" y="1938.75" width="710.85" height="65.354" style="fill:#fff;"/></svg>