<?xml version="1.0" encoding="UTF-8" standalone="no"?><!DOCTYPE svg PUBLIC "-//W3C//DTD SVG 1.1//EN" "http://www.w3.org/Graphics/SVG/1.1/DTD/svg11.dtd"><svg width="100%" height="100%" viewBox="0 0 2134 2134" version="1.1" xmlns="http://www.w3.org/2000/svg" xmlns:xlink="http://www.w3.org/1999/xlink" xml:space="preserve" xmlns:serif="http://www.serif.com/" style="fill-rule:evenodd;clip-rule:evenodd;stroke-linejoin:round;stroke-miterlimit:2;"><rect x="1266.78" y="32.808" width="400.196" height="100.05" style="fill:#fbb049;"/><path d="M1584.48,330.608l182.554,669.359l0,1100.56l-600.308,0l-0,-1100.56l182.55,-669.358c8.841,-32.408 -15.559,-64.35 -49.15,-64.35l-0,-133.396l333.504,0l0,133.4c-33.592,0 -57.987,31.942 -49.15,64.35Z" style="fill:#5a5a28;fill-rule:nonzero;"/><path d="M1300.12,132.858l0,133.4c33.596,0 57.987,31.942 49.15,64.35l-182.55,669.359l-0,1100.56l298.229,0l1.925,-1967.67l-166.754,0Z" style="fill:#7b7b53;fill-rule:nonzero;"/><rect x="1166.74" y="999.946" width="600.317" height="400.196" style="fill:#fff;"/><path d="M966.621,966.617l-66.7,1133.91l-466.904,0l-66.7,-1167.26" style="fill:#fac31c;fill-rule:nonzero;"/><path d="M766.517,766.513c-25.275,-0 -49.359,4.883 -71.621,13.429c-34.767,-29.167 -79.55,-46.784 -128.479,-46.784c-110.517,0 -200.105,89.588 -200.105,200.105c0,87.087 55.734,160.97 133.4,188.47l0,95.009c0,64.466 52.259,116.725 116.726,116.725c64.466,-0 116.725,-52.259 116.725,-116.725l-0,-53.025c10.866,1.829 21.962,3 33.35,3c110.516,-0 200.104,-89.588 200.104,-200.104c-0,-110.517 -89.588,-200.1 -200.1,-200.1Z" style="fill:#fff;fill-rule:nonzero;"/><path d="M899.921,2100.53l-466.904,0l-66.7,-1167.26" style="fill:#fbb049;fill-rule:nonzero;"/><g><rect x="599.754" y="1934.33" width="66.7" height="65.613" style="fill:#1d1d1b;"/><rect x="1266.78" y="0" width="400.196" height="65.613" style="fill:#1d1d1b;"/><path d="M999.425,966.617c0,-128.43 -104.483,-232.909 -232.908,-232.909c-22.146,0 -44.109,3.2 -65.517,9.546c-39.204,-27.775 -86.317,-42.892 -134.587,-42.892c-128.43,0 -232.909,104.484 -232.909,232.909c0,8.533 68.521,1200.06 68.521,1200.06l528.821,0l68.579,-1166.72Zm-433.008,-200.646c39.191,-0 77.333,13.887 107.396,39.108l14.808,12.417l18.037,-6.929c19.438,-7.463 39.58,-11.25 59.863,-11.25c92.017,-0 166.908,74.675 167.279,166.608l-1.217,20.642c-9.9,82.87 -80.575,147.341 -166.066,147.341c-8.592,0 -17.721,-0.829 -27.913,-2.545l-38.246,-6.425l0,91.804c0,46.275 -37.645,83.921 -83.92,83.921c-46.275,-0 -83.921,-37.65 -83.921,-83.921l-0,-118.192l-21.859,-7.737c-60.416,-21.392 -102.883,-75.338 -110.362,-137.771l-1.163,-20.396c0.342,-91.963 75.246,-166.675 167.284,-166.675Zm-102.413,1301.75l-3.875,-67.788l106.288,0l-0,-65.612l-110.038,-0l-47.416,-829.742c17.037,15.663 36.491,28.925 57.945,39.075l0,73.092c0,82.454 67.084,149.533 149.534,149.533c82.45,0 149.533,-67.083 149.533,-149.533l0,-17.217l0.542,0c60.504,0 115.683,-23.204 157.133,-61.158l-54.662,929.35l-404.984,-0Z" style="fill:#1d1d1b;fill-rule:nonzero;"/><path d="M1616.12,321.979c-2.05,-7.533 1.054,-13.121 3.088,-15.787c2.033,-2.659 6.608,-7.125 14.412,-7.125l32.808,-0l0,-199.017l-399.112,0l-0,199.013l32.808,-0c7.804,-0 12.379,4.466 14.413,7.129c2.033,2.662 5.141,8.254 3.087,15.783l-183.716,673.596l-0,1137.76l665.916,0l0,-1137.76l-183.704,-673.592Zm-235.2,17.263c6.929,-25.392 1.733,-51.959 -14.242,-72.875c-8.995,-11.775 -20.616,-20.725 -33.75,-26.296l0,-74.404l267.888,-0l-0,74.404c-13.138,5.571 -24.754,14.521 -33.75,26.296c-15.975,20.916 -21.171,47.479 -14.242,72.875l171.246,627.92l-514.4,0l171.25,-627.92Zm353.296,693.533l-0,334.588l-534.696,-0l-0,-334.588l534.696,0Zm-534.696,1034.95l-0,-634.746l534.692,0l-0,634.742l-534.692,-0l-0,0.004Z" style="fill:#1d1d1b;fill-rule:nonzero;"/></g><rect x="1266.78" y="1934.33" width="400.196" height="65.613" style="fill:#fff;"/><g><rect x="1266.78" y="1100.55" width="400.196" height="65.613" style="fill:#1d1d1b;"/><rect x="1300.11" y="1233.97" width="66.7" height="65.612" style="fill:#1d1d1b;"/><rect x="1433.53" y="1233.97" width="66.7" height="65.612" style="fill:#1d1d1b;"/><rect x="1566.94" y="1233.97" width="66.7" height="65.612" style="fill:#1d1d1b;"/></g></svg>