<?xml version="1.0" encoding="UTF-8" standalone="no"?><!DOCTYPE svg PUBLIC "-//W3C//DTD SVG 1.1//EN" "http://www.w3.org/Graphics/SVG/1.1/DTD/svg11.dtd"><svg width="100%" height="100%" viewBox="0 0 3334 3334" version="1.1" xmlns="http://www.w3.org/2000/svg" xmlns:xlink="http://www.w3.org/1999/xlink" xml:space="preserve" xmlns:serif="http://www.serif.com/" style="fill-rule:evenodd;clip-rule:evenodd;stroke-linejoin:round;stroke-miterlimit:2;"><g><g><path d="M2645.859,1353.568c-2.63,-14.141 -16.25,-23.49 -30.365,-20.859c-29.479,5.469 -50.521,15.339 -69.089,24.01c-27.083,12.656 -50.443,23.594 -100.339,23.594c-49.844,0 -73.203,-10.938 -100.234,-23.594c-28.516,-13.333 -60.885,-28.49 -122.292,-28.49c-61.432,0 -93.802,15.13 -122.344,28.49c-27.031,12.656 -50.417,23.594 -100.26,23.594c-49.844,0 -73.203,-10.938 -100.234,-23.594c-28.516,-13.333 -60.885,-28.49 -122.292,-28.49c-61.406,0 -93.724,15.13 -122.266,28.49c-27.031,12.656 -50.391,23.594 -100.208,23.594c-49.818,0 -73.177,-10.938 -100.208,-23.594c-28.49,-13.333 -60.859,-28.49 -122.24,-28.49c-61.406,0 -93.724,15.13 -122.266,28.49c-27.031,12.656 -50.391,23.594 -100.208,23.594c-49.818,0 -73.177,-10.938 -100.208,-23.594c-28.516,-13.333 -60.885,-28.49 -122.292,-28.49c-61.406,0 -93.724,15.13 -122.266,28.49c-14.896,6.979 -28.958,13.568 -47.031,17.943c-13.958,3.411 -22.552,17.474 -19.141,31.458c3.411,13.984 17.474,22.578 31.458,19.167c23.151,-5.625 40.234,-13.646 56.797,-21.38c27.031,-12.656 94.231,-73.026 100.208,-23.568c7.649,63.292 37.214,143.516 64.245,156.172c28.516,13.333 159.609,265.734 221.015,265.734c4.064,0 7.089,-7.147 11.029,-4.839c85.077,49.829 249.216,142.463 273.1,125.271c12.139,-8.737 273.618,37.061 379.436,22.324c49.316,-6.868 225.525,-86.856 225.525,-86.856c0,0 150.212,-155.18 211.619,-155.18c61.406,0 111.098,-153.321 139.64,-166.681c27.031,-12.656 18.124,-132.365 67.942,-132.365c49.844,0 -630.452,-12.642 -603.42,0.014c28.516,13.333 60.885,28.49 122.292,28.49c61.432,0 93.776,-15.13 122.318,-28.49c27.057,-12.656 51.658,30.5 101.527,30.5c49.844,0 71.962,-43.157 98.993,-30.5c28.516,13.333 60.885,28.49 122.292,28.49c61.458,0 93.828,-15.156 122.37,-28.516c17.266,-8.073 33.568,-15.729 56.536,-19.974c14.141,-2.656 23.49,-16.224 20.859,-30.365Z" style="fill-rule:nonzero;"/></g></g><g><g><path d="M1686.719,1543.099c-12.474,-12.37 -36.276,-7.422 -42.786,8.88c-1.224,3.073 -1.849,6.354 -1.849,9.661c0,14.375 11.745,26.146 26.146,26.146c11.797,0 22.214,-8.099 25.286,-19.479c2.422,-9.01 -0.182,-18.646 -6.797,-25.208Z" style="fill:#fff;fill-rule:nonzero;"/></g></g><g><g><path d="M1941.927,1488.62c-13.151,-8.776 -32.969,-2.578 -38.854,12.083c-1.224,3.073 -1.849,6.354 -1.849,9.661c0,14.375 11.771,26.146 26.172,26.146c10.651,0 20.339,-6.667 24.297,-16.536c4.583,-11.432 0.521,-24.531 -9.766,-31.354Z" style="fill:#fff;fill-rule:nonzero;"/></g></g><g><g><path d="M1373.828,1441.432c-12.161,-12.161 -35.521,-7.812 -42.474,7.917c-1.484,3.333 -2.24,6.927 -2.24,10.573c0,14.375 11.771,26.146 26.172,26.146c11.615,0 21.979,-7.891 25.182,-19.089c2.578,-9.089 0.052,-18.854 -6.641,-25.547Z" style="fill:#fff;fill-rule:nonzero;"/></g></g><g><g><path d="M1218.49,1543.281c-12.135,-12.135 -35.391,-7.839 -42.422,7.865c-1.51,3.359 -2.266,6.953 -2.266,10.625c0,14.375 11.771,26.146 26.172,26.146c11.615,0 21.953,-7.891 25.156,-19.089c2.578,-9.089 0.052,-18.854 -6.641,-25.547Z" style="fill:#fff;fill-rule:nonzero;"/></g></g><g><g><path d="M1485.495,1612.76c-14.401,0 -26.172,11.797 -26.172,26.172c0,14.375 11.771,26.172 26.172,26.172c10.651,0 20.339,-6.589 24.323,-16.51c1.224,-3.073 1.849,-6.354 1.849,-9.661c0,-14.375 -11.771,-26.172 -26.172,-26.172Z" style="fill:#fff;fill-rule:nonzero;"/></g></g><g><g><path d="M2053.021,1595.99c-12.448,-12.37 -36.276,-7.422 -42.786,8.88c-1.224,3.073 -1.849,6.354 -1.849,9.661c0,14.375 11.745,26.146 26.146,26.146c11.797,0 22.214,-8.099 25.286,-19.479c2.422,-9.01 -0.182,-18.646 -6.797,-25.208Z" style="fill:#fff;fill-rule:nonzero;"/></g></g><g><g><path d="M2205.052,1465.911c-12.188,-12.109 -35.443,-7.76 -42.396,7.969c-1.484,3.333 -2.24,6.927 -2.24,10.573c0,14.375 11.745,26.146 26.146,26.146c11.615,0 21.953,-7.865 25.156,-19.036c2.604,-9.141 0.078,-18.958 -6.667,-25.651Z" style="fill:#fff;fill-rule:nonzero;"/></g></g><g><g><path d="M2553.828,22.083c-1.953,-12.708 -12.891,-22.083 -25.729,-22.083l-1720.781,0c-12.839,0 -23.776,9.375 -25.729,22.083c-82.682,537.734 -130.547,885.443 -130.547,1071.432c0,560.052 455.599,1015.703 1015.625,1015.703c560.026,0 1015.625,-455.651 1015.625,-1015.729c0,-169.557 -36.016,-469.974 -128.464,-1071.406Zm-887.161,2035.052c-531.302,0 -963.542,-432.292 -963.542,-963.62c0,-179.271 48.307,-531.562 126.536,-1041.432l1676.094,0c88.333,576.484 124.453,878.932 124.453,1041.406c0,531.354 -432.24,963.646 -963.542,963.646Z" style="fill-rule:nonzero;"/></g></g><g><g><path d="M1744.792,2057.292c-14.401,0 -26.042,11.641 -26.042,26.042l0,625c0,14.401 11.641,26.042 26.042,26.042c14.401,0 26.042,-11.641 26.042,-26.042l0,-625c0,-14.401 -11.641,-26.042 -26.042,-26.042Z" style="fill-rule:nonzero;"/></g></g><g><g><path d="M1588.542,2057.292c-14.401,0 -26.042,11.641 -26.042,26.042l0,625c0,14.401 11.641,26.042 26.042,26.042c14.401,0 26.042,-11.641 26.042,-26.042l0,-625c0,-14.401 -11.641,-26.042 -26.042,-26.042Z" style="fill-rule:nonzero;"/></g></g><g><g><path d="M2239.583,3175.781c-264.141,0 -465.573,-200.703 -468.49,-465.13c-0.156,-14.297 -11.771,-28.333 -26.042,-28.333l-0.286,0c-14.375,0 -25.911,14.505 -25.755,28.88c3.151,285.052 213.932,504.661 494.531,517.344l0,52.708l-1093.75,0l0,-52.969c267.865,-15 491.823,-244.896 494.818,-514.531c0.156,-14.375 -11.354,-26.172 -25.755,-26.328c-13.88,-0.469 -26.198,11.354 -26.328,25.755c-2.786,250.469 -217.5,462.839 -468.88,463.776c-14.349,0.052 -25.938,11.693 -25.938,26.042l0,104.297c0,14.401 11.641,26.042 26.042,26.042l1145.833,0c14.401,0 26.042,-11.641 26.042,-26.042l0,-104.193c0,-14.401 -11.641,-27.318 -26.042,-27.318Z" style="fill-rule:nonzero;"/></g></g><g><g><path d="M1328.125,3177.083l-234.375,0c-14.401,0 -26.042,11.641 -26.042,26.042c0,14.401 11.641,26.042 26.042,26.042l234.375,0c14.401,0 26.042,-11.641 26.042,-26.042c0,-14.401 -11.641,-26.042 -26.042,-26.042Z" style="fill-rule:nonzero;"/></g></g><g><g><path d="M2213.542,3177.083l-651.042,0c-14.401,0 -26.042,11.641 -26.042,26.042c0,14.401 11.641,26.042 26.042,26.042l651.042,0c14.401,0 26.042,-11.641 26.042,-26.042c0,-14.401 -11.641,-26.042 -26.042,-26.042Z" style="fill-rule:nonzero;"/></g></g><g><g><path d="M2420.651,22.422c-2.188,-14.219 -15.547,-23.906 -29.714,-21.771c-14.219,2.187 -23.958,15.521 -21.771,29.714c84.375,546.719 130.833,924.349 130.833,1063.333c0,459.505 -373.828,833.333 -833.333,833.333c-459.505,0 -833.333,-373.828 -833.333,-833.333c0,-137.161 47.812,-524.714 131.172,-1063.307c2.188,-14.219 -7.552,-27.526 -21.745,-29.714c-14.115,-2.161 -27.552,7.526 -29.74,21.745c-83.75,541.12 -131.771,931.563 -131.771,1071.276c0,488.229 397.188,885.417 885.417,885.417c488.229,0 885.417,-397.188 885.417,-885.417c0,-191.016 -82.37,-753.177 -131.432,-1071.276Z" style="fill-rule:nonzero;"/></g></g></svg>