<?xml version="1.0" encoding="UTF-8" standalone="no"?><!DOCTYPE svg PUBLIC "-//W3C//DTD SVG 1.1//EN" "http://www.w3.org/Graphics/SVG/1.1/DTD/svg11.dtd"><svg width="100%" height="100%" viewBox="0 0 3313 3313" version="1.1" xmlns="http://www.w3.org/2000/svg" xmlns:xlink="http://www.w3.org/1999/xlink" xml:space="preserve" xmlns:serif="http://www.serif.com/" style="fill-rule:evenodd;clip-rule:evenodd;stroke-linejoin:round;stroke-miterlimit:2;"><path d="M1590.93,2510.6c-18.097,17.148 -20.898,37.651 -26.199,57.309c-37.949,140.79 -96.189,275.177 -180.122,401.612c-38.32,57.704 -81.232,112.897 -128.094,166.032c-6.482,7.361 -18.806,13.65 -13.201,26.031c85.823,-32.603 203.08,-142.708 270.166,-255.858c74.04,-124.856 101.962,-256.564 77.45,-395.126Zm1432.26,-839.24c-5.841,17.007 -1.283,31.785 2.633,46.705c32.851,125.87 29.779,250.979 -17.219,373.916c-60.907,159.433 -179.412,277.491 -366.59,343.035c-88.39,30.967 -181.135,45.999 -277.121,47.325c-115.636,1.607 -227.052,-16.556 -335.901,-47.946c-8.306,-2.397 -17.59,-2.453 -26.436,-3.582c8.981,11.733 19.886,18.756 31.703,24.481c113.812,55.08 234.546,92.139 366.793,102.067c118.168,8.856 232.251,-3.751 339.683,-44.871c226.207,-86.556 344.206,-239.67 374.085,-442.028c19.413,-131.454 -13.876,-256.93 -77.011,-377.385c-3.951,-7.559 -9.69,-14.497 -14.619,-21.717Zm-1403.7,-1464.56c-6.347,10.069 -13.268,19.912 -19.008,30.205c-34.944,62.724 -75.897,122.543 -123.739,179.034c-80.253,94.847 -165.503,186.563 -260.273,271.511c-143.76,128.973 -289.411,256.479 -435.567,383.562c-103.583,90.025 -206.491,180.557 -302.004,276.673c-78.801,79.279 -149.196,163.352 -204.971,255.661c-121.206,200.524 -137.142,406.914 -50.103,619.087c6.719,16.386 16.037,32.066 25.187,50.06c2.903,-4.371 4.659,-5.782 4.423,-6.881c-1.52,-7.136 -3.141,-14.243 -5.335,-21.209c-18.333,-58.437 -30.453,-117.692 -32.175,-178.159c-4.423,-155.399 43.688,-299.433 138.999,-432.185c32.479,-45.209 69.685,-88.247 107.668,-130.439c69.854,-77.587 151.12,-147.023 230.597,-217.643c152.908,-135.911 308.553,-269.707 454.372,-411.089c112.563,-109.174 219.218,-222.071 311.12,-344.275c57.159,-75.979 108.039,-154.723 143.016,-239.952c10.736,-26.145 22.25,-52.317 17.793,-83.961Zm26.031,-207.913c6.449,4.879 9.993,6.374 11.31,8.743c75.121,135.375 175.598,257.438 282.928,375.919c122.152,134.867 255.378,261.866 395.593,383.703c112.124,97.414 226.173,193.22 339.851,289.364c121.139,102.434 241.096,205.77 346.164,320.275c89.167,97.187 166.381,200.27 215.302,316.551c67.593,160.645 84.035,325.577 31.737,489.86c-84.709,266.012 -296.5,431.056 -612.346,500.577c-216.045,47.55 -421.995,15.625 -615.318,-75.697c-89.369,-42.22 -169.554,-94.396 -238.801,-157.994c-6.549,-6.007 -14.686,-10.83 -24.477,-17.937c1.891,91.744 100.983,342.724 189.305,481.54c94.939,149.166 216.45,281.072 379.15,396.564c-35.619,-2.059 -56.079,-14.553 -79.274,-18.784c-23.937,-4.371 -47.098,-11.732 -70.732,-17.457c-23.599,-5.726 -47.267,-11.338 -71.069,-16.499c-23.802,-5.19 -47.672,-10.21 -71.678,-14.525c-24.072,-4.315 -48.28,-7.953 -72.555,-11.366c-24.241,-3.412 -48.617,-6.402 -72.993,-9.194c-24.377,-2.792 -48.754,-5.499 -73.231,-7.502c-24.511,-2.002 -49.09,-3.272 -73.635,-4.597c-24.579,-1.326 -49.125,-2.764 -73.737,-3.384c-24.579,-0.593 -49.226,-0.677 -73.838,-0.141c-24.579,0.535 -49.124,1.917 -73.67,3.299c-24.579,1.382 -49.124,2.821 -73.602,4.936c-24.477,2.087 -48.887,4.794 -73.23,7.671c-24.376,2.877 -48.686,6.064 -72.927,9.561c-24.241,3.497 -48.448,7.192 -72.521,11.451c-24.072,4.23 -47.976,9.053 -71.846,14.073c-23.837,5.02 -47.571,10.435 -71.238,16.076c-23.634,5.612 -47.166,11.619 -70.631,17.683c-22.958,5.923 -45.781,12.127 -78.498,20.842c12.155,-10.745 16.342,-15.258 21.474,-18.84c107.499,-75.161 195.044,-164.649 271.043,-262.571c136.636,-176.015 224.789,-368.078 272.698,-573.482c1.655,-7.05 1.418,-14.411 2.059,-21.631c-17.826,-4.005 -21.709,8.348 -29.001,15.004c-122.997,112.079 -270.538,191.245 -447.148,229.94c-366.624,80.322 -759.719,-57.958 -940.448,-329.949c-79.848,-120.116 -107.803,-249.992 -105.575,-386.1c2.802,-170.911 63.946,-325.943 174.956,-468.567c80.794,-103.787 173.437,-199.649 274.961,-289.532c69.989,-61.935 141.598,-122.6 212.668,-183.687c126.203,-108.498 254.398,-215.387 378.34,-325.662c151.762,-135.008 293.833,-276.926 419.362,-429.984c70.157,-85.512 110.301,-143.018 185.118,-268.55Z" style="fill:#8b13a0;fill-rule:nonzero;"/></svg>