<?xml version="1.0" encoding="UTF-8" standalone="no"?><!DOCTYPE svg PUBLIC "-//W3C//DTD SVG 1.1//EN" "http://www.w3.org/Graphics/SVG/1.1/DTD/svg11.dtd"><svg width="100%" height="100%" viewBox="0 0 3313 3313" version="1.1" xmlns="http://www.w3.org/2000/svg" xmlns:xlink="http://www.w3.org/1999/xlink" xml:space="preserve" xmlns:serif="http://www.serif.com/" style="fill-rule:evenodd;clip-rule:evenodd;stroke-linejoin:round;stroke-miterlimit:2;"><path d="M499.413,1891.51c-4.366,-25.085 -15.091,-38.062 -22.682,-52.411c-107.449,-202.916 -190.484,-415.466 -222.825,-647.94c-20.146,-144.817 -17.459,-288.833 24.016,-429.102c84.76,-286.666 269.813,-457.194 541.884,-519.216c149.151,-34.002 297.813,-19.827 443.919,25.847c15.222,4.755 30.538,9.177 45.81,13.756c-11.275,-14.766 -24.619,-23.627 -38.7,-30.848c-148.369,-76.093 -303.816,-109.883 -468.747,-94.507c-259.644,24.204 -522.257,205.184 -611.788,533.43c-41.472,152.046 -42.818,305.965 -14.756,460.161c48.472,266.364 159.65,502.76 306.591,721.465c3.396,5.083 8.072,9.13 17.278,19.365Zm1157.77,1420.99c-33.313,-26.255 -64.876,-50.537 -95.844,-75.688c-310.513,-252.05 -603.066,-525.639 -866.81,-833.342c-153.19,-178.702 -294.065,-367.873 -412.015,-575.539c-89.032,-156.762 -164.172,-320.581 -212.275,-497.35c-37.957,-139.49 -59.691,-281.351 -56.778,-427.427c8.818,-442.354 299.403,-790.888 674.137,-880.232c145.819,-34.767 291.022,-30.132 434.341,14.917c166.4,52.302 298.619,158.885 407.65,300.676c42.531,55.286 79.187,114.847 110,178.464c3.718,7.646 8.062,14.941 12.437,22.192c0.594,1 2.938,0.802 7.313,1.823c2.687,-4.308 6.5,-9.285 9.219,-14.867c65.437,-134.885 153.875,-249.514 264.718,-344.364c137.156,-117.375 294.875,-173.03 469.25,-180.11c158.157,-6.421 307.969,27.011 446.031,110.044c246.844,148.451 393.844,373.639 439.25,672.807c21.407,140.848 11.094,281.305 -15.937,420.474c-35.75,183.963 -101.687,355.618 -185.5,520.039c-104.937,205.761 -232.938,394.262 -375.969,571.159c-198.531,245.493 -416.625,469.749 -649,678.218c-124.719,111.911 -252.187,220.108 -383.656,322.821c-5.219,4.081 -10.625,7.927 -20.562,15.285Z" style="fill:#ff4500;fill-rule:nonzero;"/></svg>