<?xml version="1.0" encoding="UTF-8" standalone="no"?><!DOCTYPE svg PUBLIC "-//W3C//DTD SVG 1.1//EN" "http://www.w3.org/Graphics/SVG/1.1/DTD/svg11.dtd"><svg width="100%" height="100%" viewBox="0 0 3313 3313" version="1.1" xmlns="http://www.w3.org/2000/svg" xmlns:xlink="http://www.w3.org/1999/xlink" xml:space="preserve" xmlns:serif="http://www.serif.com/" style="fill-rule:evenodd;clip-rule:evenodd;stroke-linejoin:round;stroke-miterlimit:2;"><path d="M1328.32,3137.02c87.932,-41.678 179.564,-153.341 229.116,-268.799c51.461,-119.895 68.763,-297.166 32.251,-386.644c-17.303,62.702 -23.6,119.13 -39.693,173.08c-16.444,55.051 -31.297,110.775 -52.129,164.296c-21.405,55.052 -46.977,108.879 -74.87,161.176c-26.971,50.644 -59.221,98.657 -94.675,156.891Zm1750.87,-786.17c-12.722,11.873 -18.383,16.739 -23.568,22.094c-19.178,19.737 -36.894,40.974 -57.44,59.243c-188.351,167.174 -413.214,217.206 -661.804,188.625c-72.707,-8.354 -141.375,-31.978 -209.629,-56.367c-11.799,-4.223 -23.122,-10.129 -42.173,-12.363c15.298,19.126 31.614,26.837 46.785,35.466c61.416,34.947 126.14,63.1 194.585,82.593c269.867,76.869 566.07,-11.996 724.81,-260.446c9.923,-15.545 20.864,-30.815 28.434,-58.845Zm-2048.3,-1315.72c0,-13.464 0.484,-19.248 -0.079,-24.94c-3.46,-34.824 -8.988,-69.556 -10.429,-104.441c-4.055,-98.199 10.063,-193.98 48.579,-285.477c74.253,-176.415 203.271,-303.623 380.302,-386.092c93.285,-43.454 191.754,-69.648 295.885,-74.544c10.814,-0.49 24.999,5.416 33.363,-10.711c-9.637,-2.693 -18.733,-6.12 -28.179,-7.773c-93.985,-16.402 -187.969,-15.943 -281.254,3.764c-309.554,65.364 -503.471,321.372 -504.088,606.818c-0.194,90.243 21.185,176.843 51.13,261.73c1.953,5.539 6.775,10.13 14.77,21.666Zm-814.873,1315.44c-5.394,-21.849 -9.223,-37.119 -12.916,-52.389c-20.387,-84.336 -27.829,-168.825 -16.733,-255.732c33.215,-260.109 224.962,-481.231 485.883,-556.908c80.127,-23.257 161.673,-32.712 245.092,-29.224c13.781,0.582 27.613,0.061 41.42,0.061c-7.647,-9.547 -16.053,-13.74 -24.952,-16.402c-116.598,-34.732 -234.618,-39.995 -352.583,-9.333c-229.58,59.733 -381.32,199.151 -445.207,420.091c-49.388,170.814 -17.694,334.377 65.525,490.136c1.298,2.417 5.162,3.58 14.471,9.7Zm1940.15,-935.87c13.772,8.354 21.659,0.428 29.993,-3.611c77.318,-37.547 158.676,-64.476 243.501,-80.328c227.185,-42.413 430.929,6.396 606.971,151.934c150.439,124.363 241.148,282.172 268.66,471.256c15.807,108.664 5.661,216.869 -30.947,321.004c-92.331,262.343 -276.515,434.29 -555.384,506.325c-205.112,53 -401,19.951 -585.789,-76.319c-143.41,-74.697 -250.784,-186.055 -336.054,-318.312c-7.824,-12.118 -15.267,-24.481 -23.059,-36.63c-0.764,-1.223 -2.704,-1.774 -4.167,-2.692c-10.146,-0.153 -9.064,7.497 -8.428,13.005c20.164,171.947 59.285,339.151 135.363,496.96c76.301,158.361 183.039,294.933 318.212,411.156c11.736,10.067 22.899,20.778 32.696,34.15c-189.942,-62.12 -383.381,-100.494 -583.532,-101.993c-200.376,-1.53 -394.563,34.365 -586.619,96.607c8.52,-20.196 8.644,-20.074 31.815,-41.219c13.215,-12.057 26.264,-24.297 38.818,-36.997c13.692,-13.862 26.974,-28.091 39.976,-42.566c11.917,-13.25 23.409,-26.867 34.738,-40.577c11.329,-13.709 22.461,-27.602 33.249,-41.739c10.791,-14.107 21.294,-28.429 31.481,-42.964c10.181,-14.536 20.075,-29.255 29.62,-44.188c10.413,-16.28 20.53,-32.743 30.301,-49.359c8.969,-15.27 17.525,-30.755 25.858,-46.33c8.333,-15.576 16.411,-31.275 24.172,-47.126c7.728,-15.851 15.171,-31.856 22.295,-47.982c7.124,-16.127 13.995,-32.346 20.419,-48.748c7.029,-17.84 13.676,-35.864 20.069,-53.949c5.849,-16.586 11.383,-33.294 16.567,-50.094c5.185,-16.769 9.892,-33.692 14.571,-50.645c4.675,-16.922 9.255,-33.875 13.485,-50.92c4.23,-17.014 8.397,-34.089 11.895,-51.287c3.848,-18.728 7.315,-37.578 10.241,-56.49c2.672,-17.32 4.326,-34.793 6.584,-52.174c2.258,-17.137 4.739,-34.243 7.156,-51.685c-14.089,-0.704 -16.856,7.405 -20.768,14.137c-43.828,75.615 -97.996,143.764 -160.776,205.67c-130.866,129.013 -289.676,203.527 -474.989,228.497c-374.161,50.431 -750.548,-185.013 -854.166,-552.317c-58.538,-207.506 -32.883,-405.433 84.971,-588.335c100.237,-155.545 239.767,-266.474 425.742,-317.547c122.396,-33.6 245.451,-33.569 367.993,-2.234c78.439,20.075 155.305,45.168 227.001,82.898c5.219,2.724 11.17,4.193 27.976,10.374c-15.912,-17.565 -23.746,-26.806 -32.2,-35.466c-103.272,-105.971 -185.848,-224.612 -231.084,-364.061c-80.735,-248.877 -54.034,-486.249 100.062,-703.088c122.444,-172.284 295.544,-276.021 508.91,-314.364c144.523,-25.981 287.965,-17.841 425.364,34.12c256.796,97.127 423.264,275.531 488.688,533.284c55.882,220.174 18.86,430.28 -102.318,625.576c-38.293,61.722 -82.916,119.068 -133.264,172.253c-10.75,11.383 -21.023,23.165 -31.869,35.13Z" style="fill:#8b13a0;fill-rule:nonzero;"/></svg>