<?xml version="1.0" encoding="UTF-8" standalone="no"?><!DOCTYPE svg PUBLIC "-//W3C//DTD SVG 1.1//EN" "http://www.w3.org/Graphics/SVG/1.1/DTD/svg11.dtd"><svg width="100%" height="100%" viewBox="0 0 3313 3313" version="1.1" xmlns="http://www.w3.org/2000/svg" xmlns:xlink="http://www.w3.org/1999/xlink" xml:space="preserve" xmlns:serif="http://www.serif.com/" style="fill-rule:evenodd;clip-rule:evenodd;stroke-linejoin:round;stroke-miterlimit:2;"><path d="M2817.95,1575.7c-0.432,-0.909 -0.697,-2.5 -1.328,-2.614c-1.194,-0.227 -2.621,0.398 -3.916,0.682c0.399,0.937 0.664,2.585 1.262,2.67c1.227,0.199 2.654,-0.426 3.982,-0.738Zm-1112.98,-1135.46c-6.934,23.167 -8.494,23.616 -3.185,37.066c13.772,34.95 26.613,70.395 44.201,103.96c36.867,70.349 84.75,135.495 135.886,198.854c186.79,231.357 406.996,436.989 656.236,619.647c74.696,54.732 155.465,103.374 233.645,154.604c5.906,3.863 12.643,10.51 21.569,1.562c-5.076,-4.062 -9.922,-8.238 -15.164,-12.001c-284.018,-203.088 -532.363,-434.45 -748.553,-691.383c-86.908,-103.3 -166.515,-210.628 -242.737,-319.86c-18.617,-26.648 -38.294,-52.75 -57.906,-78.863c-5.442,-7.258 -11.249,-15.246 -23.992,-13.586Zm-90.059,2541.12c0.962,3.011 1.925,6.022 0.829,2.557c3.186,2.3 0.531,0.397 -2.156,-1.534c5.707,-18.748 -5.476,-34.825 -12.146,-51.244c-43.305,-106.55 -103.698,-206.169 -169.402,-303.573c-148.33,-219.889 -325.928,-421.399 -525.327,-608.877c-145.543,-136.859 -298.386,-267.214 -474.457,-375.979c-3.584,-2.216 -5.376,-6.59 -8.728,-10.908c35.706,-22.753 71.777,-43.006 104.131,-66.924c61.389,-45.381 122.347,-91.41 180.584,-139.728c281.727,-233.763 526.455,-493.008 726.22,-782.446c73.833,-106.964 140.399,-217.309 182.808,-336.983c2.621,-7.422 3.418,-15.319 5.077,-22.997c-12.71,9.996 -20.242,21.429 -27.443,33.007c-17.819,28.696 -34.743,57.831 -53.426,86.121c-68.058,103.141 -145.874,200.794 -228.667,295.593c-114.88,131.545 -237.892,257.365 -367.008,378.811c-154.702,145.526 -314.846,286.486 -486.869,417.119c-56.81,43.117 -117.204,82.752 -175.873,124.025c-6.138,4.346 -11.879,9.118 -20.208,15.567c9.723,6.788 15.663,11.873 22.532,15.68c110.666,61.3 210.449,134.388 305.852,211.651c229.895,186.143 447.91,381.859 642.531,595.897c142.524,156.742 270.844,321.127 364.288,503.946c3.917,7.698 11.15,14.175 16.858,21.219Zm47.153,321.241c-18.383,-34.115 -34.212,-65.162 -51.6,-95.529c-115.18,-201.14 -254.451,-389.613 -410.778,-568.882c-231.223,-265.111 -489.522,-509.032 -780.442,-727.244c-118.366,-88.768 -242.505,-171.202 -374.045,-245.284c-9.921,-5.596 -19.18,-12.044 -31.192,-19.628c8.561,-5.881 14.634,-10.852 21.57,-14.687c197.939,-109.862 376.798,-240.051 546.797,-379.259c260.424,-213.211 495.362,-445.451 703.058,-697.646c115.545,-140.324 222.794,-285.092 312.19,-439.077c18.417,-31.743 35.141,-64.219 52.695,-96.329c3.352,-6.116 7.036,-12.095 11.747,-20.148c5.807,5.505 10.354,8.123 12.178,11.746c104.694,209.128 245.028,400.509 399.563,584.539c225.648,268.721 481.924,514.309 768.795,736.207c143.751,111.169 294.204,215.12 458.264,303.945c4.247,2.3 7.631,5.709 12.444,9.43c-3.054,3.636 -4.878,8.067 -8.529,9.97c-197.209,103 -372.385,229.973 -540.028,364.873c-285.544,229.774 -538.999,483.182 -759.669,760.536c-126.662,159.214 -238.456,325.53 -328.284,502.413c-3.186,6.277 -8.561,11.76 -14.734,20.054Z" style="fill:#ff4500;fill-rule:nonzero;"/></svg>