<?xml version="1.0" encoding="UTF-8" standalone="no"?><!DOCTYPE svg PUBLIC "-//W3C//DTD SVG 1.1//EN" "http://www.w3.org/Graphics/SVG/1.1/DTD/svg11.dtd"><svg width="100%" height="100%" viewBox="0 0 3334 3334" version="1.1" xmlns="http://www.w3.org/2000/svg" xmlns:xlink="http://www.w3.org/1999/xlink" xml:space="preserve" xmlns:serif="http://www.serif.com/" style="fill-rule:evenodd;clip-rule:evenodd;stroke-linejoin:round;stroke-miterlimit:2;"><g><path d="M2353.799,573.326l-2179.867,0c-13.079,0 -23.694,11.639 -23.694,26.038l0,2421.437c0,169.402 135.72,312.532 296.343,312.532l1659.305,0c152.306,0 271.607,-137.271 271.607,-312.532l0,-2421.437c0,-14.399 -10.615,-26.038 -23.694,-26.038Zm-23.694,2447.475c0,146.046 -98.497,260.456 -224.218,260.456l-1659.305,0c-132.616,0 -248.955,-121.701 -248.955,-260.456l0,-2395.4l2132.478,0l0,2395.4Z" style="fill-rule:nonzero;"/></g><g><path d="M2235.328,573.326c-13.079,0 -23.694,11.639 -23.694,26.038l0,2421.437c0,75.484 -44.474,130.267 -105.747,130.267l-1659.305,0c-68.287,0 -130.484,-62.1 -130.484,-130.267l0,-2421.437c0,-14.399 -10.615,-26.038 -23.694,-26.038c-13.079,0 -23.694,11.639 -23.694,26.038l0,2421.437c0,97.147 83.119,182.343 177.872,182.343l1659.305,0c88.735,0 153.136,-76.681 153.136,-182.343l0,-2421.437c0,-14.399 -10.615,-26.038 -23.694,-26.038Z" style="fill-rule:nonzero;"/></g><g><path d="M2353.799,833.704l-1800.76,0c-13.079,0 -23.694,11.639 -23.694,26.038c0,14.399 10.615,26.038 23.694,26.038l1800.76,0c13.079,0 23.694,-11.639 23.694,-26.038c0,-14.399 -10.615,-26.038 -23.694,-26.038Z" style="fill-rule:nonzero;"/></g><g><path d="M363.485,833.704l-189.554,0c-13.079,0 -23.694,11.639 -23.694,26.038c0,14.399 10.615,26.038 23.694,26.038l189.554,0c13.079,0 23.694,-11.639 23.694,-26.038c0,-14.399 -10.615,-26.038 -23.694,-26.038Z" style="fill-rule:nonzero;"/></g><g><path d="M742.593,989.853c-52.269,0 -94.777,46.712 -94.777,104.151l0,52.154c0,14.399 10.615,26.038 23.694,26.038c13.079,0 23.694,-11.639 23.694,-26.038l0,-52.154c0,-28.225 21.704,-52.076 47.388,-52.076c25.685,0 47.388,23.851 47.388,52.076l0,1848.267c0,28.225 -21.704,52.076 -47.388,52.076c-25.685,0 -47.388,-23.851 -47.388,-52.076l0,-1587.811c0,-14.399 -10.615,-26.038 -23.694,-26.038c-13.079,0 -23.694,11.639 -23.694,26.038l0,1587.811c0,57.439 42.507,104.151 94.777,104.151c52.269,0 94.777,-46.686 94.777,-104.151l0,-1848.267c0,-57.439 -42.507,-104.151 -94.777,-104.151Z" style="fill-rule:nonzero;"/></g><g><path d="M1263.865,989.853c-52.269,0 -94.777,46.712 -94.777,104.151l0,52.154c0,14.399 10.615,26.038 23.694,26.038c13.079,0 23.694,-11.639 23.694,-26.038l0,-52.154c0,-28.225 21.704,-52.076 47.388,-52.076c25.685,0 47.388,23.851 47.388,52.076l0,1848.267c0,28.225 -21.704,52.076 -47.388,52.076c-25.685,0 -47.388,-23.851 -47.388,-52.076l0,-1587.811c0,-14.399 -10.615,-26.038 -23.694,-26.038c-13.079,0 -23.694,11.639 -23.694,26.038l0,1587.811c0,57.439 42.507,104.151 94.777,104.151c52.269,0 94.777,-46.686 94.777,-104.151l0,-1848.267c0,-57.439 -42.507,-104.151 -94.777,-104.151Z" style="fill-rule:nonzero;"/></g><g><path d="M1785.138,989.853c-52.269,0 -94.777,46.712 -94.777,104.151l0,52.154c0,14.399 10.615,26.038 23.694,26.038c13.079,0 23.694,-11.639 23.694,-26.038l0,-52.154c0,-28.225 21.704,-52.076 47.388,-52.076c25.685,0 47.388,23.851 47.388,52.076l0,1848.267c0,28.225 -21.704,52.076 -47.388,52.076c-25.685,0 -47.388,-23.851 -47.388,-52.076l0,-1587.811c0,-14.399 -10.615,-26.038 -23.694,-26.038c-13.079,0 -23.694,11.639 -23.694,26.038l0,1587.811c0,57.439 42.507,104.151 94.777,104.151c52.269,0 94.777,-46.686 94.777,-104.151l0,-1848.267c0,-57.439 -42.507,-104.151 -94.777,-104.151Z" style="fill-rule:nonzero;"/></g><g><path d="M2151.047,365.623c-21.68,-105.948 -107.216,-182.733 -208.462,-182.733c-49.9,0 -97.762,19.216 -135.768,53.69c-62.647,-142.974 -195.833,-236.579 -341.813,-236.579c-134.891,0 -259.617,79.832 -327.264,206.428c-53.407,-63.558 -128.944,-100.558 -208.485,-100.558c-90.938,0 -176.451,48.639 -229.526,128.809c-37.816,-33.589 -84.328,-51.763 -133.683,-51.763c-99.705,0 -185.81,76.707 -208.011,181.666c-109.491,10.051 -195.785,111.207 -195.785,234.08c0,14.399 10.615,26.038 23.694,26.038c13.079,0 23.694,-11.639 23.694,-26.038c0,-100.818 74.637,-182.811 165.551,-182.837c12.534,1.094 24.5,-8.879 26.158,-22.445c10.994,-90.299 81.792,-158.362 164.675,-158.362c46.109,0 89.067,20.44 120.935,57.596c5.142,5.989 12.463,9.087 19.974,7.994c7.416,-0.937 14.003,-5.702 17.771,-12.785c42.247,-80.092 120.604,-129.824 204.505,-129.824c76.746,0 149.037,41.374 193.392,110.635c4.857,7.603 13.056,11.899 21.514,10.962c8.435,-0.833 15.804,-6.562 19.358,-15.024c54.212,-129.043 172.565,-212.416 301.485,-212.416c138.208,0 263.337,95.949 311.342,238.741c2.914,8.645 9.762,14.998 18.031,16.612c8.34,1.64 16.704,-1.64 22.178,-8.645c31.727,-40.541 77.67,-63.793 126.053,-63.793c85.536,0 156.666,70.406 165.457,163.778c0.687,7.499 4.312,14.295 9.928,18.643c5.616,4.296 12.653,5.728 19.311,3.958c13.577,-3.697 26.988,-5.546 39.877,-5.546c91.72,0 166.357,81.993 166.357,182.811c0,14.399 10.615,26.038 23.694,26.038c13.103,0 23.694,-11.665 23.742,-26.116c-0,-138.964 -110.368,-251.265 -239.88,-233.012Z" style="fill-rule:nonzero;"/></g><g><path d="M2353.775,1382.477c-56.274,0 -82.93,15.31 -106.458,28.85c-21.372,12.29 -39.854,22.913 -84.494,22.913c-45.588,0 -69.045,-11.092 -96.222,-23.929c-27.935,-13.201 -59.591,-28.147 -114.941,-28.147c-53.454,0 -80.631,13.566 -106.908,26.689c-22.344,11.144 -43.431,21.716 -84.873,24.606c-1.374,0.104 -2.725,0.312 -4.028,0.677c-37.271,-0.885 -55.61,-10.988 -76.722,-22.601c-25.045,-13.774 -53.478,-29.397 -110.32,-29.397c-56.013,0 -84.233,15.258 -109.136,28.72c-23.197,12.524 -43.242,23.356 -88.214,23.356c-45.066,0 -65.657,-10.884 -89.493,-23.46c-25.4,-13.409 -54.189,-28.616 -110.06,-28.616c-55.8,0 -84.873,15.18 -110.51,28.563c-24.168,12.602 -45.043,23.512 -90.156,23.512c-45.161,0 -66.178,-10.91 -90.536,-23.538c-25.756,-13.383 -54.971,-28.537 -110.723,-28.537c-55.752,0 -85.039,15.154 -110.865,28.537c-24.429,12.628 -45.517,23.538 -90.678,23.538c-45.185,0 -66.296,-10.91 -90.772,-23.564c-25.874,-13.357 -55.184,-28.511 -110.936,-28.511c-55.752,0 -85.11,15.154 -110.984,28.511c-20.922,10.806 -39.001,20.127 -71.699,22.835c-13.032,1.068 -22.841,13.566 -21.846,27.913c0.971,14.295 12.108,25.048 25.4,24.007c41.417,-3.411 66.32,-16.274 88.308,-27.626c24.476,-12.628 45.635,-23.564 90.82,-23.564c45.185,0 66.296,10.91 90.772,23.564c25.874,13.357 55.184,28.511 110.936,28.511c55.752,0 85.039,-15.154 110.865,-28.537c24.429,-12.628 45.517,-23.538 90.678,-23.538c45.114,0 66.154,10.91 90.488,23.538c25.779,13.383 54.994,28.537 110.77,28.537c55.8,0 84.873,-15.18 110.51,-28.563c24.168,-12.602 45.043,-23.512 90.156,-23.512c45.09,0 65.68,10.884 89.54,23.46c25.4,13.409 54.189,28.616 110.036,28.616c55.989,0 84.209,-15.258 109.112,-28.72c23.197,-12.524 43.242,-23.356 88.237,-23.356c45.659,0 65.799,11.092 89.114,23.903c24.002,13.201 51.227,28.173 103.473,28.173c2.535,0 4.952,-0.469 7.25,-1.328c46.488,-4.14 72.575,-17.185 95.725,-28.72c23.671,-11.821 44.119,-22.054 87.289,-22.054c45.588,0 69.045,11.092 96.222,23.929c27.935,13.201 59.591,28.147 114.941,28.147c56.297,0 82.953,-15.31 106.458,-28.798c21.372,-12.29 39.854,-22.913 84.47,-22.913c13.079,0 23.694,-11.639 23.694,-26.038c0,-14.399 -10.615,-26.038 -23.694,-26.038Z" style="fill-rule:nonzero;"/></g><g><path d="M1014.128,1693.394c-13.079,0 -23.694,11.639 -23.694,26.038c0,12.993 -9.596,23.538 -21.42,23.538c-11.8,0 -21.396,-10.545 -21.396,-23.538c0,-12.993 9.596,-23.538 21.396,-23.538c13.079,0 23.694,-11.639 23.694,-26.038c0,-14.399 -10.615,-26.038 -23.694,-26.038c-37.934,0 -68.784,33.927 -68.784,75.614c0,41.687 30.85,75.614 68.784,75.614c37.934,0 68.808,-33.927 68.808,-75.614c0,-14.399 -10.615,-26.038 -23.694,-26.038Z" style="fill-rule:nonzero;"/></g><g><path d="M1607.076,1824c-13.079,0 -23.694,11.639 -23.694,26.038c0,12.993 -9.596,23.538 -21.396,23.538c-11.8,0 -21.42,-10.545 -21.42,-23.538c0,-12.967 9.596,-23.512 21.42,-23.512c13.079,0 23.694,-11.639 23.694,-26.038c0,-14.399 -10.615,-26.038 -23.694,-26.038c-37.934,0 -68.808,33.901 -68.808,75.588c0,41.687 30.85,75.614 68.808,75.614c37.934,0 68.784,-33.927 68.784,-75.614c0,-14.399 -10.615,-26.038 -23.694,-26.038Z" style="fill-rule:nonzero;"/></g><g><path d="M2104.18,1675.22c-13.079,0 -23.694,11.639 -23.694,26.038c0,12.967 -9.596,23.512 -21.42,23.512c-11.8,0 -21.396,-10.545 -21.396,-23.512c0,-12.993 9.596,-23.538 21.396,-23.538c13.079,0 23.694,-11.639 23.694,-26.038c0,-14.399 -10.615,-26.038 -23.694,-26.038c-37.934,0 -68.784,33.901 -68.784,75.614c0,41.66 30.85,75.588 68.784,75.588c37.934,0 68.808,-33.927 68.808,-75.588c0,-14.399 -10.615,-26.038 -23.694,-26.038Z" style="fill-rule:nonzero;"/></g><g><path d="M517.119,1926.928c-13.079,0 -23.694,11.639 -23.694,26.038c0,12.993 -9.596,23.538 -21.396,23.538c-11.8,0 -21.42,-10.545 -21.42,-23.538c0,-12.967 9.596,-23.512 21.42,-23.512c13.079,0 23.694,-11.639 23.694,-26.038c0,-14.399 -10.615,-26.038 -23.694,-26.038c-37.934,0 -68.808,33.901 -68.808,75.588c0,41.687 30.85,75.614 68.808,75.614c37.934,0 68.784,-33.927 68.784,-75.614c0,-14.399 -10.615,-26.038 -23.694,-26.038Z" style="fill-rule:nonzero;"/></g><g><path d="M1111.369,2006.838c-13.079,0 -23.813,11.743 -23.813,26.142c0,14.399 10.733,26.168 23.813,26.168c9.715,0 18.529,-6.588 22.107,-16.534c1.114,-3.046 1.682,-6.327 1.682,-9.634c0,-14.399 -10.71,-26.142 -23.789,-26.142Z" style="fill-rule:nonzero;"/></g><g><path d="M541.974,1613.849c-13.079,0 -23.813,11.743 -23.813,26.142c0,14.399 10.733,26.194 23.813,26.194c10.212,0 19.358,-7.343 22.581,-17.992c0.806,-2.63 1.208,-5.416 1.208,-8.202c0,-14.399 -10.71,-26.142 -23.789,-26.142Z" style="fill-rule:nonzero;"/></g><g><path d="M1561.986,2058.913c-13.079,0 -23.813,11.743 -23.813,26.142c0,14.399 10.733,26.168 23.813,26.168c9.691,0 18.505,-6.588 22.107,-16.534c1.114,-3.046 1.682,-6.327 1.682,-9.634c0,-14.399 -10.71,-26.142 -23.789,-26.142Z" style="fill-rule:nonzero;"/></g><g><path d="M1465.432,1588.723c-13.079,0 -23.813,11.769 -23.813,26.168c0,14.399 10.733,26.168 23.813,26.168c9.691,0 18.505,-6.614 22.107,-16.508c1.114,-3.072 1.682,-6.353 1.682,-9.66c0,-14.399 -10.71,-26.168 -23.789,-26.168Z" style="fill-rule:nonzero;"/></g><g><path d="M1512.82,2241.074c-13.079,0 -23.813,11.769 -23.813,26.168c0,14.399 10.733,26.142 23.813,26.142c8.98,0 17.273,-5.676 21.301,-14.503c1.635,-3.593 2.488,-7.603 2.488,-11.639c0,-14.399 -10.71,-26.168 -23.789,-26.168Z" style="fill-rule:nonzero;"/></g><g><path d="M422.389,2187.488c-13.079,0 -23.813,11.743 -23.813,26.142c0,14.399 10.733,26.168 23.813,26.168c9.715,0 18.529,-6.614 22.107,-16.534c1.114,-3.046 1.682,-6.327 1.682,-9.634c0,-14.399 -10.71,-26.142 -23.789,-26.142Z" style="fill-rule:nonzero;"/></g><g><path d="M1986.799,2161.45c-13.079,0 -23.789,11.743 -23.789,26.142c0,14.399 10.71,26.168 23.789,26.168c9.691,0 18.529,-6.614 22.13,-16.534c1.114,-3.046 1.682,-6.327 1.682,-9.634c0,-14.399 -10.733,-26.142 -23.813,-26.142Z" style="fill-rule:nonzero;"/></g><g><path d="M2128.467,1953.668c-13.079,0 -23.813,11.769 -23.813,26.168c0,14.399 10.733,26.168 23.813,26.168c9.691,0 18.505,-6.588 22.107,-16.508c1.114,-3.072 1.682,-6.353 1.682,-9.66c0,-14.399 -10.71,-26.168 -23.789,-26.168Z" style="fill-rule:nonzero;"/></g><g><path d="M944.609,2187.488c-13.079,0 -23.813,11.743 -23.813,26.142c0,14.399 10.733,26.168 23.813,26.168c9.715,0 18.553,-6.614 22.13,-16.534c1.114,-3.046 1.682,-6.327 1.682,-9.634c0,-14.399 -10.733,-26.142 -23.813,-26.142Z" style="fill-rule:nonzero;"/></g><g><path d="M2626.448,859.742l-272.649,0c-13.079,0 -23.694,11.639 -23.694,26.038c0,14.399 10.615,26.038 23.694,26.038l272.649,0c285.563,0 509.26,252.358 509.26,574.55l0,727.314c0,321.228 -223.697,572.858 -509.26,572.858l-272.649,0c-13.079,0 -23.694,11.639 -23.694,26.038c0,14.399 10.615,26.038 23.694,26.038l272.649,0c312.147,0 556.648,-274.517 556.648,-624.933l0,-727.314c0,-351.38 -244.501,-626.626 -556.648,-626.626Z" style="fill-rule:nonzero;"/></g><g><path d="M2626.448,1120.12l-272.649,0c-13.079,0 -23.694,11.639 -23.694,26.038c0,14.399 10.615,26.038 23.694,26.038l272.649,0c152.709,0 272.317,138 272.317,314.172l0,727.314c0,175.234 -119.608,312.48 -272.317,312.48l-272.649,0c-13.079,0 -23.694,11.639 -23.694,26.038c0,14.399 10.615,26.038 23.694,26.038l272.649,0c179.27,0 319.706,-160.132 319.706,-364.555l0,-727.314c0,-205.36 -140.436,-366.248 -319.706,-366.248Z" style="fill-rule:nonzero;"/></g></svg>